# xmcd
#
# Track frame offsets: 
#        183
#        10500
#        23488
#        35810
#        47058
#        58448
#        70910
#        80843
#        94178
#        107395
#        122608
#        136473
#        148883
#        162168
#        175378
#        192550
#
# Disc length: 2721 seconds
#
# Revision: 0
# Processed by: cddbd v1.5.2PL0 Copyright (c) Steve Scherf et al.
# Submitted via: ExactAudioCopy v0.99pb3
#
DISCID=e40a9f10
DTITLE=Various Artist - Country No.1´s Vol.3
DYEAR=1989
DGENRE=Country
TTITLE0=Eddie Arnold - Then You Can Tell Me Goodbye
TTITLE1=Jim Reeves - Distant Drums
TTITLE2=Johnny Cash - Folsom Prision Blues
TTITLE3=Conway Twitty - Hello Darlin'
TTITLE4=Donna Fargo - The Happiest Girl In The Whole U.S.A.
TTITLE5=Jerry Lee Lewis - Chantilly Lace
TTITLE6=Charley Pride - Is Anybody Goin' To San Antone?
TTITLE7=Waylon And Willie - Good Hearted Woman
TTITLE8=Charlie Rich - Behind Closed Doors
TTITLE9=Jeannie Pruett - Satin Sheets
TTITLE10=Barbara Fairchild - The Teddy Bear Song
TTITLE11=Hank Williams Jnr. - Eleven Roses
TTITLE12=Lynn Anderson - KeepMe In Mind
TTITLE13=Dolly Parton - I Will Always Love You
TTITLE14=C.W. McCall - Convoy
TTITLE15=Freddy Fender - Before The Next Teardrop Falls
EXTD=
EXTT0=
EXTT1=
EXTT2=
EXTT3=
EXTT4=
EXTT5=
EXTT6=
EXTT7=
EXTT8=
EXTT9=
EXTT10=
EXTT11=
EXTT12=
EXTT13=
EXTT14=
EXTT15=
PLAYORDER=
